<svg version="1.1" id="Layer_1" xmlns="http://www.w3.org/2000/svg" xmlns:xlink="http://www.w3.org/1999/xlink" x="0px" y="0px"
	 width="100%" viewBox="0 0 710 275" enable-background="new 0 0 710 275" xml:space="preserve">
<path fill="#FFFFFF" opacity="1.000000" stroke="none" 
	d="
M489.000000,276.000000 
	C326.000031,276.000000 163.500076,276.000000 1.000087,276.000000 
	C1.000058,184.333389 1.000058,92.666786 1.000029,1.000136 
	C237.666550,1.000091 474.333099,1.000091 710.999756,1.000046 
	C710.999817,92.666527 710.999817,184.333054 710.999878,275.999786 
	C637.166687,276.000000 563.333313,276.000000 489.000000,276.000000 
M120.618286,200.034927 
	C120.620094,186.871170 120.901611,173.697662 120.443192,160.549942 
	C120.315483,156.887268 118.961327,152.223480 116.432106,149.964844 
	C113.569176,147.408218 112.910721,145.146240 113.234215,141.942444 
	C113.568054,138.636139 113.716385,135.269440 114.476059,132.054428 
	C120.309845,107.365608 143.159607,91.775826 168.508667,95.057129 
	C192.132172,98.115067 210.428925,119.886040 209.859894,144.468384 
	C209.825851,145.939316 208.485931,147.401489 207.684280,148.828781 
	C205.899811,152.005875 202.638962,155.100311 202.508224,158.330750 
	C201.935959,172.470917 202.123520,186.649643 202.329330,200.810120 
	C202.428970,207.665512 207.045944,212.057541 213.253632,211.981750 
	C219.440628,211.906219 223.909134,207.341461 223.962967,200.590500 
	C224.074585,186.594604 224.314377,172.584549 223.759918,158.609741 
	C223.629913,155.333359 220.548843,152.173798 218.824417,148.961075 
	C218.034714,147.489777 216.877975,146.098785 216.538269,144.530457 
	C216.050171,142.277115 216.184845,139.892853 216.004517,137.568283 
	C213.650467,107.222710 183.976242,83.741531 153.946472,88.454117 
	C126.527557,92.756981 107.278938,114.996887 106.757652,142.739197 
	C106.720604,144.710632 105.904724,147.406982 104.482254,148.470245 
	C100.647552,151.336624 98.857651,154.708923 98.904617,159.481689 
	C99.035759,172.810730 98.923653,186.141983 98.960564,199.472198 
	C98.981476,207.022385 102.687424,211.574280 108.991013,211.963440 
	C115.338142,212.355316 119.327232,208.558212 120.618286,200.034927 
M365.229584,115.977242 
	C352.017670,115.977242 338.805725,115.977242 325.663177,115.977242 
	C325.663177,138.818939 325.663177,161.539474 325.663177,184.234161 
	C330.987915,184.234161 336.014374,184.234161 341.271179,184.234161 
	C341.271179,179.868286 341.026306,175.867920 341.376617,171.920349 
	C341.546539,170.005417 342.494781,166.889587 343.677643,166.583160 
	C346.692749,165.802048 350.235565,165.300201 351.591034,169.995453 
	C352.780151,174.114456 354.656921,178.055267 356.480225,181.957825 
	C356.993195,183.055740 358.348328,184.437363 359.385651,184.496979 
	C364.116669,184.768875 368.872040,184.616287 374.303497,184.616287 
	C371.576965,177.727371 369.160919,171.622818 366.675049,165.341934 
	C372.761658,162.064346 374.538391,156.936218 374.323425,150.605453 
	C374.086456,143.626297 374.184113,136.631973 374.283752,129.646347 
	C374.373657,123.342506 371.920197,118.726562 365.229584,115.977242 
M306.530914,182.176254 
	C308.087250,179.682343 310.866394,177.245972 310.986938,174.684494 
	C311.491852,163.955383 311.199921,153.188797 311.199921,142.496460 
	C303.050018,142.496460 295.147797,142.496460 287.260681,142.496460 
	C287.260681,147.791153 287.260681,152.716751 287.260681,158.082397 
	C290.125885,158.082397 292.729431,158.082397 295.697083,158.082397 
	C295.697083,161.000519 295.956970,163.515121 295.575012,165.928116 
	C295.411835,166.958664 293.953827,168.510971 293.008575,168.567795 
	C288.422485,168.843445 283.810699,168.692215 279.032928,168.692215 
	C279.032928,156.054214 279.032928,144.026016 279.032928,131.559738 
	C290.026276,131.559738 300.614380,131.559738 311.227051,131.559738 
	C311.227051,125.911194 311.227051,120.715294 311.227051,115.378647 
	C299.341522,115.378647 287.852753,115.264343 276.367523,115.416229 
	C267.781647,115.529762 262.846497,120.565224 262.766876,129.279846 
	C262.640625,143.100815 262.647400,156.924530 262.764282,170.745667 
	C262.841309,179.853943 267.566284,184.456360 276.784698,184.602585 
	C283.610809,184.710861 290.448334,184.819946 297.263855,184.529984 
	C300.167389,184.406479 303.027679,183.266068 306.530914,182.176254 
M450.734802,153.499115 
	C450.736572,159.163376 450.669403,164.828674 450.755585,170.491653 
	C450.900177,179.996323 455.393646,184.468384 464.972229,184.597702 
	C471.801392,184.689896 478.634216,184.701157 485.462921,184.592667 
	C494.936279,184.442154 499.473999,179.904816 499.597778,170.325104 
	C499.772064,156.832321 499.832428,143.337341 499.831696,129.843292 
	C499.831177,120.735939 494.757202,115.578278 485.648499,115.412552 
	C478.653809,115.285301 471.653351,115.292938 464.658295,115.409409 
	C455.924316,115.554810 450.990753,120.347160 450.795746,129.010437 
	C450.619568,136.836578 450.743866,144.669449 450.734802,153.499115 
M424.836578,115.466324 
	C417.186279,115.441116 409.534119,115.300148 401.886139,115.421036 
	C393.006195,115.561394 388.042175,120.631454 388.005798,129.479004 
	C387.949707,143.117767 387.962921,156.757019 387.999664,170.395905 
	C388.025085,179.835892 392.554504,184.434448 402.072937,184.587280 
	C409.056976,184.699417 416.046417,184.719604 423.029510,184.581314 
	C432.128815,184.401138 436.765686,179.682602 436.845551,170.547974 
	C436.964813,156.909683 436.996765,143.270309 436.993500,129.631409 
	C436.991577,121.668701 433.550873,117.485420 424.836578,115.466324 
M581.729492,132.501587 
	C581.729492,149.770615 581.729492,167.039658 581.729492,184.340973 
	C596.390503,184.340973 610.480286,184.340973 624.791199,184.340973 
	C624.791199,179.123642 624.791199,174.183151 624.791199,168.594604 
	C615.835449,168.594604 606.963135,168.594604 598.004517,168.594604 
	C598.004517,164.736755 598.004517,161.532089 598.004517,158.018341 
	C604.509460,158.018341 610.634766,158.018341 617.009399,158.018341 
	C617.009399,152.613556 617.009399,147.530960 617.009399,141.953308 
	C610.495361,141.953308 604.236023,141.953308 597.922485,141.953308 
	C597.922485,138.369995 597.922485,135.285233 597.922485,131.507751 
	C607.066467,131.507751 615.929749,131.507751 624.803955,131.507751 
	C624.803955,125.853661 624.803955,120.902809 624.803955,115.729553 
	C610.402466,115.729553 596.213806,115.729553 581.729980,115.729553 
	C581.729980,121.218338 581.729980,126.360565 581.729492,132.501587 
M526.043762,160.639832 
	C527.972656,167.529083 529.810364,174.446365 531.911926,181.282532 
	C532.304016,182.558105 533.688416,184.379288 534.728149,184.458282 
	C539.307922,184.806335 543.929138,184.608582 548.527832,184.608582 
	C554.930603,161.341034 561.191650,138.588196 567.576538,115.385544 
	C563.659729,115.385544 560.178650,115.628380 556.747375,115.319168 
	C553.111389,114.991501 551.578247,116.258881 550.642700,119.887375 
	C547.623535,131.597656 544.150757,143.191010 540.526733,155.979996 
	C537.803833,146.165283 535.395569,137.539124 533.018616,128.904297 
	C529.119873,114.741386 529.128418,114.738625 514.432434,115.479263 
	C514.272034,115.487343 514.115601,115.576797 513.543640,115.762794 
	C517.639160,130.446732 521.740601,145.151825 526.043762,160.639832 
M233.948975,191.163879 
	C233.953278,183.182617 234.163712,175.191971 233.801361,167.227402 
	C233.721481,165.471619 231.610718,163.808212 230.435135,162.102280 
	C229.244751,163.749039 227.098846,165.354630 227.025833,167.049530 
	C226.668350,175.348022 226.671539,183.678314 227.019501,191.977585 
	C227.091537,193.695801 229.170181,195.329895 230.323990,197.002762 
	C231.541550,195.358871 232.759094,193.714981 233.948975,191.163879 
M96.002831,190.243179 
	C96.003052,182.751160 95.964005,175.258820 96.024529,167.767288 
	C96.046059,165.103546 95.848534,162.075043 92.616600,162.413147 
	C91.240982,162.557053 89.257820,165.794205 89.161407,167.706818 
	C88.767990,175.511993 88.779282,183.358902 89.149155,191.166367 
	C89.242523,193.137238 90.989334,196.451279 92.366623,196.668015 
	C96.195442,197.270554 96.006126,193.877121 96.002831,190.243179 
z"/>
<path fill="#F8B706" opacity="1.000000" stroke="none" 
	d="
M120.608017,200.475113 
	C119.327232,208.558212 115.338142,212.355316 108.991013,211.963440 
	C102.687424,211.574280 98.981476,207.022385 98.960564,199.472198 
	C98.923653,186.141983 99.035759,172.810730 98.904617,159.481689 
	C98.857651,154.708923 100.647552,151.336624 104.482254,148.470245 
	C105.904724,147.406982 106.720604,144.710632 106.757652,142.739197 
	C107.278938,114.996887 126.527557,92.756981 153.946472,88.454117 
	C183.976242,83.741531 213.650467,107.222710 216.004517,137.568283 
	C216.184845,139.892853 216.050171,142.277115 216.538269,144.530457 
	C216.877975,146.098785 218.034714,147.489777 218.824417,148.961075 
	C220.548843,152.173798 223.629913,155.333359 223.759918,158.609741 
	C224.314377,172.584549 224.074585,186.594604 223.962967,200.590500 
	C223.909134,207.341461 219.440628,211.906219 213.253632,211.981750 
	C207.045944,212.057541 202.428970,207.665512 202.329330,200.810120 
	C202.123520,186.649643 201.935959,172.470917 202.508224,158.330750 
	C202.638962,155.100311 205.899811,152.005875 207.684280,148.828781 
	C208.485931,147.401489 209.825851,145.939316 209.859894,144.468384 
	C210.428925,119.886040 192.132172,98.115067 168.508667,95.057129 
	C143.159607,91.775826 120.309845,107.365608 114.476059,132.054428 
	C113.716385,135.269440 113.568054,138.636139 113.234215,141.942444 
	C112.910721,145.146240 113.569176,147.408218 116.432106,149.964844 
	C118.961327,152.223480 120.315483,156.887268 120.443192,160.549942 
	C120.901611,173.697662 120.620094,186.871170 120.608017,200.475113 
z"/>
<path fill="#7C7855" opacity="1.000000" stroke="none" 
	d="
M365.611481,116.083122 
	C371.920197,118.726562 374.373657,123.342506 374.283752,129.646347 
	C374.184113,136.631973 374.086456,143.626297 374.323425,150.605453 
	C374.538391,156.936218 372.761658,162.064346 366.675049,165.341934 
	C369.160919,171.622818 371.576965,177.727371 374.303497,184.616287 
	C368.872040,184.616287 364.116669,184.768875 359.385651,184.496979 
	C358.348328,184.437363 356.993195,183.055740 356.480225,181.957825 
	C354.656921,178.055267 352.780151,174.114456 351.591034,169.995453 
	C350.235565,165.300201 346.692749,165.802048 343.677643,166.583160 
	C342.494781,166.889587 341.546539,170.005417 341.376617,171.920349 
	C341.026306,175.867920 341.271179,179.868286 341.271179,184.234161 
	C336.014374,184.234161 330.987915,184.234161 325.663177,184.234161 
	C325.663177,161.539474 325.663177,138.818939 325.663177,115.977242 
	C338.805725,115.977242 352.017670,115.977242 365.611481,116.083122 
M342.800934,150.096298 
	C361.251770,149.823486 358.049225,153.141769 358.371704,136.025909 
	C358.377930,135.695709 358.474213,135.235306 358.300629,135.055023 
	C357.177765,133.888657 356.070038,131.928360 354.811859,131.812836 
	C350.443115,131.411758 346.014923,131.657974 340.856232,131.657974 
	C341.225677,138.159882 341.558105,144.010605 342.800934,150.096298 
z"/>
<path fill="#7C7856" opacity="1.000000" stroke="none" 
	d="
M306.219269,182.382004 
	C303.027679,183.266068 300.167389,184.406479 297.263855,184.529984 
	C290.448334,184.819946 283.610809,184.710861 276.784698,184.602585 
	C267.566284,184.456360 262.841309,179.853943 262.764282,170.745667 
	C262.647400,156.924530 262.640625,143.100815 262.766876,129.279846 
	C262.846497,120.565224 267.781647,115.529762 276.367523,115.416229 
	C287.852753,115.264343 299.341522,115.378647 311.227051,115.378647 
	C311.227051,120.715294 311.227051,125.911194 311.227051,131.559738 
	C300.614380,131.559738 290.026276,131.559738 279.032928,131.559738 
	C279.032928,144.026016 279.032928,156.054214 279.032928,168.692215 
	C283.810699,168.692215 288.422485,168.843445 293.008575,168.567795 
	C293.953827,168.510971 295.411835,166.958664 295.575012,165.928116 
	C295.956970,163.515121 295.697083,161.000519 295.697083,158.082397 
	C292.729431,158.082397 290.125885,158.082397 287.260681,158.082397 
	C287.260681,152.716751 287.260681,147.791153 287.260681,142.496460 
	C295.147797,142.496460 303.050018,142.496460 311.199921,142.496460 
	C311.199921,153.188797 311.491852,163.955383 310.986938,174.684494 
	C310.866394,177.245972 308.087250,179.682343 306.219269,182.382004 
z"/>
<path fill="#7B7754" opacity="1.000000" stroke="none" 
	d="
M450.735229,152.999237 
	C450.743866,144.669449 450.619568,136.836578 450.795746,129.010437 
	C450.990753,120.347160 455.924316,115.554810 464.658295,115.409409 
	C471.653351,115.292938 478.653809,115.285301 485.648499,115.412552 
	C494.757202,115.578278 499.831177,120.735939 499.831696,129.843292 
	C499.832428,143.337341 499.772064,156.832321 499.597778,170.325104 
	C499.473999,179.904816 494.936279,184.442154 485.462921,184.592667 
	C478.634216,184.701157 471.801392,184.689896 464.972229,184.597702 
	C455.393646,184.468384 450.900177,179.996323 450.755585,170.491653 
	C450.669403,164.828674 450.736572,159.163376 450.735229,152.999237 
M466.600830,137.536499 
	C466.600830,147.799561 466.600830,158.062637 466.600830,168.578934 
	C472.564972,168.578934 477.964508,168.578934 483.586853,168.578934 
	C483.586853,156.298828 483.586853,144.244217 483.586853,131.905518 
	C477.954895,131.905518 472.578278,131.905518 466.896179,131.905518 
	C466.785553,133.639236 466.692993,135.089310 466.600830,137.536499 
z"/>
<path fill="#7A7653" opacity="1.000000" stroke="none" 
	d="
M425.256958,115.531784 
	C433.550873,117.485420 436.991577,121.668701 436.993500,129.631409 
	C436.996765,143.270309 436.964813,156.909683 436.845551,170.547974 
	C436.765686,179.682602 432.128815,184.401138 423.029510,184.581314 
	C416.046417,184.719604 409.056976,184.699417 402.072937,184.587280 
	C392.554504,184.434448 388.025085,179.835892 387.999664,170.395905 
	C387.962921,156.757019 387.949707,143.117767 388.005798,129.479004 
	C388.042175,120.631454 393.006195,115.561394 401.886139,115.421036 
	C409.534119,115.300148 417.186279,115.441116 425.256958,115.531784 
M420.992096,145.506897 
	C420.992096,140.943451 420.992096,136.380020 420.992096,131.885284 
	C414.904388,131.885284 409.647308,131.885284 404.125671,131.885284 
	C404.125671,144.202896 404.125671,156.242874 404.125671,168.559662 
	C409.735596,168.559662 415.119446,168.559662 420.992340,168.559662 
	C420.992340,161.042618 420.992340,153.773300 420.992096,145.506897 
z"/>
<path fill="#7B7754" opacity="1.000000" stroke="none" 
	d="
M581.729736,132.002197 
	C581.729980,126.360565 581.729980,121.218338 581.729980,115.729553 
	C596.213806,115.729553 610.402466,115.729553 624.803955,115.729553 
	C624.803955,120.902809 624.803955,125.853661 624.803955,131.507751 
	C615.929749,131.507751 607.066467,131.507751 597.922485,131.507751 
	C597.922485,135.285233 597.922485,138.369995 597.922485,141.953308 
	C604.236023,141.953308 610.495361,141.953308 617.009399,141.953308 
	C617.009399,147.530960 617.009399,152.613556 617.009399,158.018341 
	C610.634766,158.018341 604.509460,158.018341 598.004517,158.018341 
	C598.004517,161.532089 598.004517,164.736755 598.004517,168.594604 
	C606.963135,168.594604 615.835449,168.594604 624.791199,168.594604 
	C624.791199,174.183151 624.791199,179.123642 624.791199,184.340973 
	C610.480286,184.340973 596.390503,184.340973 581.729492,184.340973 
	C581.729492,167.039658 581.729492,149.770615 581.729736,132.002197 
z"/>
<path fill="#7B7754" opacity="1.000000" stroke="none" 
	d="
M525.942871,160.248383 
	C521.740601,145.151825 517.639160,130.446732 513.543640,115.762794 
	C514.115601,115.576797 514.272034,115.487343 514.432434,115.479263 
	C529.128418,114.738625 529.119873,114.741386 533.018616,128.904297 
	C535.395569,137.539124 537.803833,146.165283 540.526733,155.979996 
	C544.150757,143.191010 547.623535,131.597656 550.642700,119.887375 
	C551.578247,116.258881 553.111389,114.991501 556.747375,115.319168 
	C560.178650,115.628380 563.659729,115.385544 567.576538,115.385544 
	C561.191650,138.588196 554.930603,161.341034 548.527832,184.608582 
	C543.929138,184.608582 539.307922,184.806335 534.728149,184.458282 
	C533.688416,184.379288 532.304016,182.558105 531.911926,181.282532 
	C529.810364,174.446365 527.972656,167.529083 525.942871,160.248383 
z"/>
<path fill="#F8B706" opacity="1.000000" stroke="none" 
	d="
M233.962799,191.617493 
	C232.759094,193.714981 231.541550,195.358871 230.324005,197.002762 
	C229.170181,195.329895 227.091537,193.695801 227.019501,191.977585 
	C226.671539,183.678314 226.668350,175.348022 227.025833,167.049530 
	C227.098846,165.354630 229.244751,163.749039 230.435135,162.102280 
	C231.610718,163.808212 233.721481,165.471619 233.801361,167.227402 
	C234.163712,175.191971 233.953278,183.182617 233.962799,191.617493 
z"/>
<path fill="#F8B602" opacity="1.000000" stroke="none" 
	d="
M96.002808,190.706131 
	C96.006126,193.877121 96.195442,197.270554 92.366623,196.668015 
	C90.989334,196.451279 89.242523,193.137238 89.149155,191.166367 
	C88.779282,183.358902 88.767990,175.511993 89.161407,167.706818 
	C89.257820,165.794205 91.240982,162.557053 92.616600,162.413147 
	C95.848534,162.075043 96.046059,165.103546 96.024529,167.767288 
	C95.964005,175.258820 96.003052,182.751160 96.002808,190.706131 
z"/>
<path fill="#FDFDFC" opacity="1.000000" stroke="none" 
	d="
M342.345734,149.978821 
	C341.558105,144.010605 341.225677,138.159882 340.856232,131.657974 
	C346.014923,131.657974 350.443115,131.411758 354.811859,131.812836 
	C356.070038,131.928360 357.177765,133.888657 358.300629,135.055023 
	C358.474213,135.235306 358.377930,135.695709 358.371704,136.025909 
	C358.049225,153.141769 361.251770,149.823486 342.345734,149.978821 
z"/>
<path fill="#FCFCFB" opacity="1.000000" stroke="none" 
	d="
M466.600647,137.037933 
	C466.692993,135.089310 466.785553,133.639236 466.896179,131.905518 
	C472.578278,131.905518 477.954895,131.905518 483.586853,131.905518 
	C483.586853,144.244217 483.586853,156.298828 483.586853,168.578934 
	C477.964508,168.578934 472.564972,168.578934 466.600830,168.578934 
	C466.600830,158.062637 466.600830,147.799561 466.600647,137.037933 
z"/>
<path fill="#FEFEFE" opacity="1.000000" stroke="none" 
	d="
M420.992218,146.005447 
	C420.992340,153.773300 420.992340,161.042618 420.992340,168.559662 
	C415.119446,168.559662 409.735596,168.559662 404.125671,168.559662 
	C404.125671,156.242874 404.125671,144.202896 404.125671,131.885284 
	C409.647308,131.885284 414.904388,131.885284 420.992096,131.885284 
	C420.992096,136.380020 420.992096,140.943451 420.992218,146.005447 
z"/>
</svg>